<?xml version="1.0" encoding="UTF-8"?>
<svg id="Layer_2" data-name="Layer 2" xmlns="http://www.w3.org/2000/svg" viewBox="0 0 781.96 676.49">
  <defs>
    <style>
      .cls-1 {
        fill: #c72727;
        stroke-width: 0px;
      }
    </style>
  </defs>
  <g id="Layer_1-2" data-name="Layer 1">
    <path class="cls-1" d="M303.1,203.26l.03-52.53-7.35-8.5-50.12-6.54s-31.4-6.4-51.11-8.47c-19.71-2.07-59.49,10.73-59.49,10.73l-39.55.75-19.47,2.06-13.09,52.41-4.14,22.18-40.75,12.58L0,240.95l9.41,49.91,7.58,14.72,12.14,49.19,18.99,26.25,19.45,26.09,14.21,32.45,13,24.46,87.76-22.8,4.43,3.62-8.02,13.93-6.42,43.47-32.9,66.29-3.48,11.08-20,37.67,2.17,7.03,71.9,52.19,9.52-2.94s58.84-94.25,71.47-131.71c12.63-37.46,30.03-93.86,30.03-93.86l19.71-59.31,10.29-24.64,10.22-68.63-4.9-32.89,1.81-52.98-2.12-6.87-33.13.59ZM222.13,339.7l-22.75,51.67-9.5,32.24-2.11.65-2.37-13.95-43.69-87.65-12.09-44.12-14.53-37.22,50.13,1.86,14.88-1.93,53.94,7.7-11.9,90.76Z"/>
    <path class="cls-1" d="M356.06,55.48c-7.06-7.06-7.14-26.95-9.16-30.33-.67-1.12-1.09-2.58-1.38-4.04-1.15-.66-2.31-1.31-3.49-1.89-.27-.13-.54-.27-.81-.41-1.35-.62-2.73-1.15-4.18-1.52-10.01,2.64-27.12,6.87-36.86,7.68-14.35,1.2-41.61,11.37-41.61,11.37,0,0-.45,21.11,2.68,29.71,3.13,8.6,11.58,21.49,19.17,27.09,4.65,3.43,7.58,10.31,9.16,15.13,2.59,1.29,5.21,2.51,7.87,3.67,7.47-1.9,19.78-5.08,27.59-7.36,11.81-3.45,38.09-5.88,43.28-6.98.91-.19,1.67-.39,2.38-.6.19-.37.39-.73.58-1.09,1.14-2.21,2.36-4.37,3.8-6.42-2.91-8.09-13.15-28.14-19.01-34Z"/>
    <path class="cls-1" d="M768.55,174.14c0,1.44.1,2.63.24,3.69l3.69,9.53c.77,1.91.96,3.97.67,6.03l-5.31,32.84c-2.25,13.74-5.03,27.86-7.08,37.1-4.6,20.44-2.92,60.12-2.92,60.12l-3.06,14.7c-2.92,1.63-5.79,3.4-8.47,5.36-23.46.43-58.44.14-75.53-.05-4.4-3.21-8.81-6.41-12.73-10.19-2.49-16.85,2.97-89.37,6.17-101.38,4.07-14.98-2.2-26.28-2.2-26.28l-18.57,4.45-33.22-2.68-.1.05-53.61,9.29h-.05l-12.3-.57h-.05c-.91-.19-1.77-.38-2.58-.57-20.68-5.31-54.28.29-60.98.81-.24,0-.43.05-.57.05-.38,0-.62.05-.62.05,3.54,9.29-1.53,51.94-1.53,51.94l.43-.19c4.77-2.04,9.94-2.93,15.12-2.61,3.53.22,7.54.42,10.3.4,6.08-.05,10.05-3.93,21.54-7.95,11.49-4.02,54.38-7.18,67.59-9.43,5.41-.91,10.53-1.91,14.7-2.78,3.35,2.35,6.8,4.4,10.34,6.41l1.91,70.51s-12.4,7.66-40.88,9.62c-30.39,5.32-90.28,19.05-99.37,22.07-9.09,3.02-41.74-.38-45.9-1.68-2.06-.62-3.73-4.69-4.98-8.71l-.19-.19c-1.77-5.74-4.4-11.2-7.51-16.56l-8.86-22.74s-4.59-17.81-4.02-27c.29-4.98-1.24-17.81-2.78-28.58-.48-5.31-1.29-10.63-2.35-15.89-.09-.53-.14-.81-.14-.81l-5.22-25.08,4.26-39.15c.86-8.38,1.82-17.57,2.78-26.37,1.1-10.77,2.2-20.97,2.97-28.38.43-4.21,1.15-8.62,2.01-13.02l3.49-29.2,14.5-17.52-1-27.33c5.65-4.93,10.82-10.48,16.18-15.65,6.37-.38,13.45-1.01,19.58-1.53,13.21-1.15,38.2,2.73,45.95,3.11,7.71.43,17.52-6.27,45.33-6.13,27.81.19,58.06-5.89,58.06-5.89l-3.4,75.77c-1.92,1.58-3.73,3.3-5.6,4.93-8.04,1.1-23.93,3.21-39.49,4.74-28.19,6.46-80.46,10.77-80.46,10.77,3.49,20.44,1.2,36.9.81,39.35l-.05.29s14.74-1.87,18.19-1.44c3.45.43,15.36-.48,15.36-.48l14.31-2.25s13.98,2.87,26.71,1.53c12.68-1.29,24.03-2.25,24.03-2.25l83.67-1.24.24-2.49s7.66-33.17,7.56-54.23c-.05-16.85,6.56-48.97,9.24-61.17,2.39-2.06,4.74-4.16,7.13-6.22C717.34.33,751.18-.19,769.89.05c3.02,1.68,5.79,3.69,8.42,5.84,1.15,1.34,2.39,2.63,3.64,3.88-2.01,15.08-1.96,82.47-4.12,94.44-1.29,7.08-9.29,63.04-9.29,69.93Z"/>
  </g>
</svg>