<?xml version="1.0" encoding="UTF-8"?>
<svg xmlns="http://www.w3.org/2000/svg" viewBox="0 0 660.64 393.85">
  <defs>
    <style>
      .cls-1 {
        fill: none;
      }

      .cls-1, .cls-2, .cls-3 {
        stroke-width: 0px;
      }

      .cls-2 {
        fill: #000;
      }

      .cls-3 {
        fill: #c82314;
      }
    </style>
  </defs>
  <g id="Protection_Area" data-name="Protection Area">
    <rect class="cls-1" y="114.26" width="80.89" height="114.26"/>
    <rect class="cls-1" x="0" y="0" width="80.89" height="114.26"/>
    <rect class="cls-1" x="0" y="0" width="660.64" height="393.89"/>
    <rect class="cls-1" x="579.75" y="114.26" width="80.89" height="114.26"/>
    <rect class="cls-1" x="579.75" y="228.52" width="80.89" height="114.26"/>
    <rect class="cls-1" x="336.84" y="279.63" width="80.89" height="114.26"/>
  </g>
  <g id="Brand">
    <g>
      <path class="cls-2" d="M165.62,149.58l2.63-14.36-1.58-2.69-13.37-4.28s-8.26-3.31-13.55-4.86c-5.29-1.55-16.8-.03-16.8-.03l-10.85-1.77-5.42-.41-6.19,13.67-2.24,5.86-11.77,1.41-5.59,2.66.08,14.11,1.34,4.4.87,14.05,3.88,8.12,4.02,8.1,2.27,9.58,2.33,7.33,25.12-1.86,1.03,1.21-2.89,3.41-3.92,11.56-12.3,16.48-1.5,2.85-7.35,9.3.24,2.03,17.05,17.85,2.75-.33s20.78-22.83,26.1-32.44c5.32-9.61,12.89-24.16,12.89-24.16l8.34-15.23,4.04-6.22,6.21-18.25.3-9.23,3.14-14.39-.24-1.98-9.09-1.49ZM136.69,182.83l-8.79,12.99-4.21,8.34-.61.07.05-3.93-7.57-26.14-1.11-12.66-2.12-10.9,13.61,3.01,4.16.21,14.36,4.79-7.78,24.21Z"/>
      <path class="cls-2" d="M208.84,118.27c-2.28-2.41-2.34-9.15-2.99-10.3-.22-.38-.36-.88-.45-1.37-.76-.49-1.97-1.05-2.73-1.31-3.21.88-8.7,2.29-11.83,2.55-4.61.38-13.35,3.79-13.35,3.79,0,0-.11,7.16.91,10.08,1.02,2.92,3.76,7.31,6.2,9.22,1.5,1.17,2.45,3.51,2.97,5.15.83.44,1.68.86,2.53,1.26,2.4-.63,6.34-1.69,8.85-2.45,3.79-1.15,12.23-1.93,13.89-2.3.29-.06.54-.13.76-.2.06-.12.12-.25.19-.37.36-.75.75-1.48,1.21-2.17-.95-2.75-4.27-9.57-6.16-11.57Z"/>
      <path class="cls-2" d="M343.3,181.36c0,.48.03.87.08,1.22l1.22,3.16c.25.63.32,1.32.22,2l-1.76,10.88c-.75,4.55-1.67,9.23-2.35,12.29-1.52,6.77-.97,19.92-.97,19.92l-1.01,4.87c-.97.54-1.92,1.13-2.81,1.78-7.77.14-19.37.05-25.03-.02-1.46-1.06-2.92-2.13-4.22-3.38-.82-5.58.98-29.61,2.05-33.59,1.35-4.96-.73-8.71-.73-8.71l-6.15,1.48-11.01-.89-.03.02-17.76,3.08h-.02l-4.08-.19h-.02c-.3-.06-.59-.13-.86-.19-6.85-1.76-17.99.1-20.21.27-.08,0-.14.02-.19.02-.13,0-.21.02-.21.02,1.17,3.08-.51,17.21-.51,17.21l.14-.06c1.58-.67,3.29-.97,5.01-.86,1.17.07,2.5.14,3.41.13,2.01-.02,3.33-1.3,7.14-2.63,3.81-1.33,18.02-2.38,22.4-3.12,1.79-.3,3.49-.63,4.87-.92,1.11.78,2.25,1.46,3.43,2.13l.63,23.36s-4.11,2.54-13.54,3.19c-10.07,1.76-29.91,6.31-32.93,7.31-3.01,1-13.83-.13-15.21-.56-.68-.21-1.24-1.55-1.65-2.89l-.06-.06c-.59-1.9-1.46-3.71-2.49-5.49l-2.93-7.53s-1.52-5.9-1.33-8.95c.1-1.65-.41-5.9-.92-9.47-.16-1.76-.43-3.52-.78-5.27-.03-.17-.05-.27-.05-.27l-1.73-8.31,1.41-12.97c.29-2.78.6-5.82.92-8.74.36-3.57.73-6.95.98-9.41.14-1.4.38-2.85.67-4.31l1.16-9.68,4.81-5.81-.33-9.06c1.87-1.63,3.58-3.47,5.36-5.19,2.11-.13,4.46-.33,6.49-.51,4.38-.38,12.66.9,15.23,1.03,2.55.14,5.8-2.08,15.02-2.03,8.25.06,17.15-1.55,18.92-1.89l.31.12-1.12,24.92c-.63.52-1.24,1.09-1.86,1.63-2.66.36-7.93,1.06-13.09,1.57-9.34,2.14-26.66,3.57-26.66,3.57,1.16,6.77.4,12.23.27,13.04l-.02.1s4.89-.62,6.03-.48c1.14.14,5.09-.16,5.09-.16l4.74-.75s4.63.95,8.85.51c4.2-.43,7.96-.75,7.96-.75l27.73-.41.08-.82s2.54-10.99,2.51-17.97c-.02-5.58,2.17-16.23,3.06-20.27.79-.68,1.57-1.38,2.36-2.06,9.09-1.79,20.3-1.97,26.5-1.89,1,.56,1.92,1.22,2.79,1.93.38.44.79.87,1.21,1.28-.67,5-.65,27.33-1.36,31.29-.43,2.35-3.08,20.89-3.08,23.17Z"/>
      <g>
        <path class="cls-2" d="M576.71,221.22l-1.83-1.59-15.79-38.71-1.65-5.5-2.54-.94-12.23-34.28-4.7-6.48s0,0,0,0l-2.27-11.42c-1.15-.64-2.3-1.29-3.39-2.03l-17.21,5.1-8.48,5.19c-.18.13-.35.25-.53.38l-1.78,1.7s0,0,0,0l2.51,9.33-8.91-3.46c-1.22.76-2.36,1.72-3.56,2.51l-8.12,27.85-3.12,11.78-.83,2.11c-.29,1.29-.57,2.56-.86,3.85l-.25,3.78-3.39,8.96-4.75,13.09.35,5.53-6.02,10.62,26.78,8.7c.06,0,.11-.02.17-.01.2.03.39.05.59.08.15-.06.31-.12.47-.17.25-.15.52-.29.82-.36.06-.01.11-.02.17-.02.39-.26.81-.48,1.33-.57.03,0,.05,0,.08,0,.22-.12.45-.22.7-.29.3-.18.63-.32.96-.43l7.57-13.65,1.46-8.46,9.07-30.67h0s-.11-7.97-.11-7.97h.59c.75,3.14,3.09,10.34,6.03,14.11,4.7,9.89,18.99,39.46,18.99,39.46.2.56.5,1.07.89,1.51l1.71,1.95,3.21,7.4c.41.17.73.42,1.03.71.15.06.28.14.41.22.46.1.88.26,1.23.5.65.26,1.27.56,1.88.86.28,0,.54.03.8.08l21.24-5.44c.03-.13.09-.25.19-.35,1.52-1.37,2.8-2.97,4.15-4.5l-3.04-10.05Z"/>
        <path class="cls-2" d="M495.82,209.39l-1.72-.7c-.27-.11-.57-.17-.86-.17l-43.71-.08s-.1,0-.14-.01l-14.28-2.12s-.05,0-.08,0l-9.45-.6c-.55-.04-.97-.52-.93-1.07l.47-5.69c.05-.55.53-.95,1.07-.91l8.77.75c1.28.11,2.56-.05,3.77-.49,3.73-1.36,26.31-4.62,26.31-4.62.15-.27.33-.52.57-.74.07-.05.13-.11.2-.17.01-.03.02-.05.03-.08.06-.13.12-.26.2-.38.02-.03.03-.05.05-.07.19-.26.43-.57.64-.82.01-.01.02-.03.03-.04.04-.05.08-.09.13-.12.1-.1.21-.18.32-.27l2.58-19.97c-.03-.06-.05-.12-.08-.18-.46-.32-.9-.68-1.31-1.06-.69-.66-1.31-1.39-2.02-2.04-.02-.01-.05-.03-.07-.04,0,0-.01,0-.02,0-.42-.07-.84-.19-1.22-.37l-2.46.38s-.06,0-.08,0l-23.61,1.69h-.14l-9.58-.69h-.18s-2.04,0-2.04,0c-.65,0-1.12-.6-.97-1.23,0,0-.36-5.87-.37-5.96l1.04-6.51c.06-.54.53-.93,1.07-.89l12.76.18c.08,0,.16,0,.25,0l8.22-.28s.1-.02.15-.04l6.12-2c.13-.02.25-.03.37-.05l8.53.56s.1,0,.14,0l5.89-.45s.04-.04.06-.06c1.04-.8,2.14-1.54,3.22-2.29.04-.04.08-.07.12-.1,0-.01.02-.02.03-.04l2.32-22.66s-.03-.08-.05-.13c-.95-.73-1.95-1.39-3.01-1.95h-4.84l-21.4.77s-.07,0-.11,0l-12.59-.93-10.23-1.08s-.05,0-.07,0l-7.58-.24c-1.01,1.08-2.02,2.17-3.09,3.18l-.47,4.06c-.06.49-.46.86-.95.88l-8.33.32c-.16,0-.31.04-.46.08-.15.13-.3.26-.45.39-.44.39-.88.8-1.28,1.23-.19.2-.34.37-.49.54l-2.81,16.42c0,.05,0,.11-.01.16v7.82s-1.65,28.09-1.65,28.09c0,.03,0,.07,0,.1l.05,4.53s0,.04,0,.07l-.21,3.34c.01.11.02.21.03.31l1.94,7.31c.01.11.03.23.04.34l-.48,25.13s0,.07,0,.11l.19,2.05c.16.19.32.39.42.62,0,0,.02.01.02.02.04.04.08.07.12.11.23.21.4.45.55.7l21.58,3.85c.06,0,.11.01.17.02l6.15.03s8.7.78,8.75.78l30.1-.86c.68-.21,1.4-.28,2.11-.23l13.52,1.08s.07,0,.11,0l8.91-.25c.55-.02,1.08-.23,1.49-.61l.21-.19c.37-.34.62-.8.71-1.31l3.9-23.08c.08-.46-.17-.91-.6-1.08Z"/>
      </g>
      <path class="cls-3" d="M457.55,254.44l-6.64-.59-10.88,1.34-46.83-.7-7.73,1.34s-21.77.11-24.41-.93c0,0-10.85,1.04-15.7.16l-10.2.2s-2.88.8-7.6,1.33c0,0-6.66-.29-9.6-.85-2.94-.56-4.82-.17-4.82-.17l-1.62-.4-.84.16-1.92,14.57,1.13,5.42c1.24.63,3.05.99,4.56,1.23,1.23.1,2.91.29,5.07.64,5.04.82,19.67.99,19.67.99l7.4.92,12.77-.64c.38-.02.75-.01,1.13.02l12.16,1.15,27.23-1.31,5.82.18,14.13-2.42c.52-.09,1.05-.08,1.56.03l1.25.26,22.69,1.25,3.38-1.64c.47-.23,1-.36,1.53-.37l9.85-.28c1.1-1.17,2.34-2.19,3.64-3.13l3.53-17.85-.42-.54-8.49.64c-.27.02-.53.01-.8,0Z"/>
    </g>
  </g>
</svg>