<?xml version="1.0" encoding="UTF-8"?>
<svg id="Layer_2" data-name="Layer 2" xmlns="http://www.w3.org/2000/svg" viewBox="0 0 926.83 487.55">
  <defs>
    <style>
      .cls-1 {
        letter-spacing: .06em;
      }

      .cls-2 {
        letter-spacing: -.04em;
      }

      .cls-3 {
        fill: #c72727;
        stroke-width: 0px;
      }

      .cls-4 {
        fill: #1a1a1a;
        font-family: Poppins-MediumItalic, Poppins;
        font-size: 55.83px;
        font-style: italic;
        font-weight: 500;
      }
    </style>
  </defs>
  <g id="Layer_1-2" data-name="Layer 1">
    <g>
      <path class="cls-3" d="M917.12,302.22l-5.62-4.69-49.73-115.96-5.27-16.5-7.72-2.7-38.74-102.77-14.52-19.29s0,0,0,0l-7.48-34.35c-3.51-1.87-7-3.77-10.33-5.95l-51.67,16.32-25.31,16.13c-.53.39-1.06.78-1.59,1.18l-5.27,5.23s0,0,0,0l8.06,28.01-27.06-9.95c-3.66,2.36-7.02,5.31-10.6,7.77l-23,84.48-8.78,35.71-2.39,6.43c-.8,3.91-1.59,7.76-2.39,11.67l-.54,11.42-9.75,27.21-13.63,39.74,1.36,16.67-17.59,32.38,81.28,24.8c.17,0,.33-.06.5-.05.6.07,1.19.14,1.79.21.46-.19.92-.39,1.4-.53.75-.48,1.54-.89,2.44-1.12.17-.05.34-.06.51-.08,1.18-.82,2.43-1.49,3.97-1.79.08-.01.15-.02.23-.03.67-.36,1.35-.69,2.09-.92.9-.57,1.89-.99,2.88-1.36l22.09-41.6,3.94-25.62,25.7-93.02h0s-.77-24.03-.77-24.03c0,0,8.07,26.57,20.75,42.2,14.72,29.58,59.43,118.05,59.43,118.05.63,1.67,1.57,3.2,2.77,4.52l5.27,5.79,10.1,22.15c1.24.49,2.24,1.24,3.14,2.08.45.18.85.41,1.25.64,1.4.29,2.67.75,3.74,1.44,1.96.76,3.85,1.62,5.73,2.5.85-.01,1.64.07,2.4.19l63.79-17.57c.09-.4.25-.77.56-1.06,4.51-4.23,8.3-9.11,12.28-13.82l-9.7-30.17Z"/>
      <path class="cls-3" d="M672.41,270.87l-5.24-2.02c-.83-.32-1.71-.48-2.6-.46l-131.89,2.12c-.15,0-.29-.02-.44-.02l-43.21-5.63c-.08,0-.16-.01-.25-.02l-28.55-1.32c-1.67-.08-2.96-1.51-2.85-3.19l1.12-17.19c.11-1.65,1.54-2.91,3.19-2.79l26.5,1.8c3.85.26,7.73-.29,11.34-1.68,11.19-4.29,79.13-15.37,79.13-15.37.44-.81.97-1.58,1.67-2.25.2-.17.39-.35.58-.52.03-.08.06-.16.1-.24.17-.4.35-.79.58-1.16.05-.08.1-.15.15-.23.57-.8,1.27-1.74,1.87-2.52.03-.04.07-.09.1-.13.11-.14.24-.26.38-.38.29-.32.62-.55.94-.82l6.71-60.38c-.08-.17-.17-.36-.25-.54-1.41-.95-2.76-2-3.99-3.13-2.13-1.95-4.04-4.14-6.21-6.04-.07-.04-.14-.08-.22-.13-.02,0-.04-.01-.06-.02-1.26-.18-2.54-.52-3.72-1.05l-7.41,1.29c-.09.01-.17.02-.26.03l-71.16,6.36h-.43s-28.95-1.54-28.95-1.54h-.55s-6.16.15-6.16.15c-1.95.05-3.42-1.74-3-3.65,0,0-1.41-17.7-1.43-17.98l2.79-19.68c.14-1.63,1.56-2.85,3.2-2.73l38.52-.16c.25-.01.49-.03.74-.04l24.8-1.3c.15-.04.29-.08.44-.12l18.37-6.36c.38-.05.75-.11,1.12-.16l25.77,1.24c.15,0,.29,0,.43-.01l17.76-1.68c.06-.06.11-.13.17-.18,3.11-2.48,6.37-4.77,9.6-7.09.12-.11.24-.21.36-.32.03-.04.05-.07.08-.11l5.78-68.51c-.05-.13-.09-.25-.14-.38-2.9-2.16-5.97-4.09-9.2-5.72l-14.62.26-64.54,3.49c-.11,0-.22,0-.32,0l-38.03-2.13-30.94-2.7c-.07,0-.14,0-.21-.01l-22.88-.33c-3,3.31-5.98,6.64-9.16,9.76l-1.19,12.27c-.14,1.47-1.34,2.62-2.81,2.7l-25.11,1.4c-.47.03-.92.15-1.37.27-.44.4-.89.8-1.33,1.21-1.31,1.21-2.6,2.45-3.81,3.77-.55.6-1,1.13-1.44,1.67l-7.58,49.69c-.01.16-.02.32-.03.49l.41,22.86v.72s-3.46,84.84-3.46,84.84c.01.1.02.2.02.3l.41,13.66c0,.07,0,.13,0,.2l-.45,10.1c.04.32.07.63.11.95l6.25,21.95c.05.34.1.68.14,1.03l-.11,75.86c0,.11.01.22.02.33l.68,6.17c.5.57.97,1.16,1.31,1.83.02.02.05.04.08.06.13.1.25.21.36.33.69.62,1.23,1.33,1.7,2.09l65.31,10.47c.17.01.34.03.51.04l18.55-.25c.15,0,26.29,1.88,26.44,1.89l90.77-4.21c2.05-.66,4.2-.93,6.35-.8l40.86,2.53c.11,0,.22,0,.32,0l26.87-1.25c1.67-.08,3.25-.76,4.46-1.91l.61-.59c1.11-1.06,1.84-2.46,2.07-3.98l10.52-69.84c.21-1.39-.57-2.73-1.88-3.24Z"/>
    </g>
    <path class="cls-3" d="M447.3,392.16l-20.03-1.78-32.85,4.03-141.32-2.1-23.32,4.04s-65.7.32-73.66-2.79c0,0-32.73,3.15-47.39.48l-30.78.61s-8.68,2.42-22.95,4.01c0,0-20.1-.89-28.97-2.57-8.87-1.68-14.51.16-14.51.16l-7.06-4.08-4.46,26.78v18.15l5.39,14.47c3.74,1.91,6.9,4.59,10.05,7.29,3.71.31,8.78.88,15.29,1.94,15.21,2.48,59.37,2.98,59.37,2.98l22.33,2.78,38.53-1.94c1.14-.06,2.27-.03,3.41.08l36.71,3.48,82.16-3.96,17.56.54,42.64-7.29c1.56-.27,3.16-.24,4.71.09l3.77.8,68.47,3.78,10.21-4.95c1.43-.69,3.01-1.08,4.62-1.12l29.72-.86c3.32-3.53,7.05-6.61,10.99-9.45l10.97-55.38-27.19,1.81c-.8.05-1.6.04-2.4-.03Z"/>
    <text class="cls-4" transform="translate(523.25 455.05)"><tspan class="cls-2" x="0" y="0">.06</tspan><tspan class="cls-1" x="78.39" y="0">.</tspan><tspan class="cls-2" x="95.2" y="0">2025 Porto</tspan></text>
  </g>
</svg>