<?xml version="1.0" encoding="UTF-8"?>
<svg id="Layer_2" data-name="Layer 2" xmlns="http://www.w3.org/2000/svg" viewBox="0 0 562.1 611.19">
  <defs>
    <style>
      .cls-1 {
        fill: #c72727;
        stroke-width: 0px;
      }
    </style>
  </defs>
  <g id="Camada_1" data-name="Camada 1">
    <path class="cls-1" d="M534.93,52.62c-9.48-8.52-11.77-34.36-14.63-38.58-.94-1.39-1.63-3.25-2.14-5.13-1.49-.76-2.99-1.49-4.51-2.13-.35-.15-.7-.3-1.04-.45-1.73-.68-3.49-1.24-5.32-1.59-12.04,4.35-32.65,11.43-44.56,13.39-17.54,2.89-50,18.63-50,18.63,0,0,1.78,27.48,6.59,38.36,4.81,10.88,16.64,26.86,26.6,33.43,6.1,4.02,10.48,12.7,12.96,18.82,3.33,1.43,6.7,2.78,10.1,4.04,8.99-3.16,23.8-8.43,33.17-12.12,14.17-5.58,46.27-11.16,52.54-13.07,1.1-.33,2.02-.66,2.86-1,.19-.49.4-.98.6-1.48,1.16-2.97,2.42-5.9,3.97-8.69-4.47-10.25-19.3-35.36-27.17-42.44Z"/>
    <path class="cls-1" d="M341.64,104.34l8.15-58.19-6.83-10.55-54.51-14.99s-33.8-11.94-55.32-17.28c-21.52-5.34-67.57,2.69-67.57,2.69L121.63.73l-21.89-.73-22.61,56.05-8.01,23.93-47.09,7.63L0,99.23l2.7,56.75,6.12,17.48,5.84,56.38,16.98,32.02,17.52,31.92,10.72,38.15,10.62,29.11,100.76-11.69,4.35,4.69-11.04,14.19-13.84,47.16-46.71,68.35-5.57,11.74-27.99,38.64,1.32,8.13,71.59,68.94,11-1.78s79.77-95.32,99.55-134.87c19.78-39.55,47.79-99.34,47.79-99.34l31.01-62.67,15.21-25.7,21.94-74.46-.34-37.19,10.2-58.42-1.29-7.94-36.8-4.47ZM230.83,242.99l-33.19,53.73-15.52,34.25-2.44.39-.47-15.83-34.85-103.86-6.57-50.75-10.34-43.48,55.25,9.81,16.78.16,58.57,16.87-27.22,98.71Z"/>
  </g>
</svg>